<svg width="394" height="120" fill="none" xmlns="http://www.w3.org/2000/svg"><rect width="394" height="120" rx="23" fill="#425138"/><path d="M131.072 79V41.182h15.142c2.782 0 5.103.412 6.962 1.237 1.859.825 3.256 1.97 4.192 3.435.935 1.452 1.403 3.127 1.403 5.022 0 1.478-.296 2.777-.886 3.897a7.653 7.653 0 0 1-2.438 2.733c-1.022.701-2.191 1.2-3.508 1.495v.37a8.472 8.472 0 0 1 4.044 1.218c1.268.751 2.296 1.804 3.083 3.158.788 1.342 1.182 2.942 1.182 4.801 0 2.007-.498 3.798-1.496 5.374-.984 1.563-2.443 2.8-4.376 3.712-1.933.91-4.315 1.366-7.146 1.366h-16.158Zm7.996-6.537h6.518c2.229 0 3.854-.425 4.875-1.274 1.022-.862 1.533-2.007 1.533-3.435 0-1.046-.252-1.97-.757-2.77s-1.225-1.428-2.161-1.883c-.923-.456-2.025-.683-3.305-.683h-6.703v10.045Zm0-15.456h5.927c1.096 0 2.069-.19 2.918-.572.862-.394 1.539-.948 2.031-1.662.505-.714.757-1.57.757-2.567 0-1.367-.486-2.468-1.458-3.305-.961-.838-2.327-1.256-4.1-1.256h-6.075v9.362Zm34.323 22.529c-1.809 0-3.422-.314-4.838-.942-1.415-.64-2.536-1.582-3.361-2.825-.812-1.256-1.218-2.82-1.218-4.69 0-1.577.289-2.9.868-3.971a7.022 7.022 0 0 1 2.363-2.585c.997-.653 2.13-1.145 3.398-1.477a25.883 25.883 0 0 1 4.026-.702c1.649-.173 2.979-.333 3.988-.48 1.01-.16 1.742-.394 2.198-.702.455-.308.683-.763.683-1.367v-.11c0-1.17-.369-2.075-1.108-2.715-.726-.64-1.761-.96-3.102-.96-1.416 0-2.542.314-3.38.942-.837.615-1.391 1.39-1.662 2.326l-7.275-.59c.369-1.724 1.096-3.214 2.179-4.47 1.083-1.267 2.48-2.24 4.192-2.917 1.723-.69 3.717-1.034 5.983-1.034 1.575 0 3.083.185 4.524.554 1.452.37 2.739.942 3.859 1.717a8.348 8.348 0 0 1 2.678 2.992c.652 1.206.978 2.653.978 4.34V79h-7.46v-3.933h-.221a8.005 8.005 0 0 1-1.829 2.345c-.763.665-1.68 1.188-2.751 1.57-1.071.369-2.308.553-3.712.553Zm2.253-5.43c1.157 0 2.179-.227 3.066-.683.886-.468 1.581-1.095 2.086-1.883.505-.788.757-1.68.757-2.678v-3.01c-.246.16-.584.308-1.015.444-.419.123-.893.24-1.422.35-.53.099-1.059.191-1.588.277l-1.441.203c-.923.136-1.729.351-2.419.647-.689.295-1.225.695-1.606 1.2-.382.492-.573 1.108-.573 1.847 0 1.07.388 1.89 1.164 2.456.788.553 1.785.83 2.991.83Zm43.423-15.382-7.202.444a3.724 3.724 0 0 0-.794-1.662c-.406-.505-.942-.905-1.607-1.2-.652-.308-1.434-.462-2.345-.462-1.218 0-2.246.258-3.083.775-.838.505-1.256 1.182-1.256 2.032 0 .677.271 1.25.812 1.717.542.468 1.471.843 2.789 1.126l5.133 1.034c2.758.567 4.814 1.478 6.168 2.733 1.354 1.256 2.031 2.906 2.031 4.95 0 1.858-.548 3.49-1.643 4.893-1.084 1.403-2.573 2.499-4.469 3.287-1.884.775-4.056 1.163-6.519 1.163-3.754 0-6.746-.782-8.974-2.345-2.216-1.576-3.515-3.718-3.896-6.426l7.737-.407c.234 1.145.8 2.02 1.699 2.623.898.59 2.049.886 3.453.886 1.379 0 2.487-.265 3.324-.794.849-.542 1.28-1.237 1.292-2.087-.012-.714-.314-1.299-.905-1.754-.59-.468-1.501-.825-2.732-1.071l-4.912-.979c-2.77-.554-4.832-1.514-6.186-2.88-1.342-1.367-2.013-3.109-2.013-5.226 0-1.822.492-3.392 1.477-4.71.997-1.316 2.394-2.332 4.192-3.046 1.809-.714 3.927-1.071 6.352-1.071 3.582 0 6.402.757 8.457 2.271 2.069 1.515 3.275 3.577 3.62 6.186Zm5.6 20.276V50.636h7.866V79h-7.866Zm3.951-32.02c-1.169 0-2.173-.388-3.01-1.163-.825-.788-1.237-1.73-1.237-2.825 0-1.084.412-2.013 1.237-2.789.837-.788 1.841-1.182 3.01-1.182 1.17 0 2.167.394 2.992 1.182.837.776 1.255 1.705 1.255 2.788 0 1.096-.418 2.038-1.255 2.826-.825.775-1.822 1.163-2.992 1.163Zm23.032 32.574c-2.905 0-5.404-.616-7.497-1.847-2.081-1.243-3.681-2.966-4.801-5.17-1.108-2.204-1.662-4.74-1.662-7.608 0-2.905.56-5.454 1.68-7.645 1.133-2.203 2.739-3.92 4.82-5.152 2.08-1.243 4.555-1.865 7.423-1.865 2.474 0 4.641.45 6.5 1.348 1.859.899 3.33 2.16 4.413 3.786 1.084 1.625 1.681 3.533 1.791 5.724h-7.423c-.209-1.416-.763-2.554-1.662-3.416-.886-.874-2.049-1.311-3.49-1.311-1.219 0-2.283.332-3.194.997-.899.652-1.601 1.606-2.106 2.862-.504 1.256-.757 2.776-.757 4.561 0 1.81.247 3.349.739 4.617.505 1.268 1.213 2.234 2.124 2.899s1.975.997 3.194.997c.899 0 1.705-.185 2.419-.554a4.661 4.661 0 0 0 1.791-1.606c.481-.715.794-1.57.942-2.567h7.423c-.123 2.166-.714 4.075-1.772 5.724-1.047 1.637-2.493 2.918-4.34 3.841-1.846.923-4.031 1.385-6.555 1.385Z" fill="#fff"/></svg>