<svg width="394" height="120" fill="none" xmlns="http://www.w3.org/2000/svg"><rect width="394" height="120" rx="23" fill="#425138"/><path d="M87.248 79V41.182h14.92c2.869 0 5.312.548 7.331 1.643 2.019 1.084 3.558 2.592 4.617 4.524 1.071 1.92 1.606 4.137 1.606 6.648s-.541 4.727-1.625 6.648c-1.083 1.92-2.653 3.416-4.709 4.487-2.043 1.071-4.517 1.607-7.423 1.607h-9.51V60.33h8.218c1.538 0 2.806-.265 3.804-.794 1.009-.542 1.76-1.286 2.252-2.234.505-.96.758-2.063.758-3.306 0-1.255-.253-2.351-.758-3.287-.492-.948-1.243-1.68-2.252-2.197-1.01-.53-2.29-.794-3.841-.794h-5.392V79h-7.996Zm33.52 0V50.636h7.627v4.95h.295c.517-1.761 1.385-3.09 2.604-3.99 1.218-.91 2.622-1.366 4.21-1.366.394 0 .819.025 1.274.074.456.05.856.117 1.2.203v6.98c-.369-.11-.88-.21-1.532-.295-.653-.086-1.25-.13-1.792-.13-1.157 0-2.191.253-3.102.758a5.583 5.583 0 0 0-2.142 2.068c-.517.886-.775 1.908-.775 3.065V79h-7.867Zm32.883.554c-2.917 0-5.429-.59-7.534-1.773-2.093-1.194-3.705-2.88-4.838-5.06-1.132-2.19-1.699-4.782-1.699-7.774 0-2.917.567-5.478 1.699-7.681 1.133-2.204 2.727-3.921 4.783-5.152 2.068-1.231 4.493-1.847 7.275-1.847 1.872 0 3.614.302 5.226.905a11.589 11.589 0 0 1 4.247 2.677c1.219 1.195 2.167 2.697 2.844 4.506.677 1.798 1.016 3.903 1.016 6.316v2.16h-23.951v-4.875h16.546c0-1.133-.246-2.136-.739-3.01a5.287 5.287 0 0 0-2.049-2.05c-.862-.504-1.865-.757-3.01-.757-1.195 0-2.253.277-3.177.831a5.825 5.825 0 0 0-2.142 2.198c-.517.91-.781 1.926-.794 3.047v4.634c0 1.404.259 2.616.776 3.638.529 1.022 1.274 1.81 2.234 2.364.961.554 2.099.83 3.417.83.874 0 1.674-.122 2.4-.368a4.983 4.983 0 0 0 1.865-1.109 4.82 4.82 0 0 0 1.182-1.81l7.276.481c-.37 1.748-1.127 3.275-2.272 4.58-1.132 1.292-2.597 2.302-4.395 3.028-1.785.714-3.847 1.071-6.186 1.071ZM171.803 79V50.636h7.497v5.005h.333c.591-1.662 1.576-2.973 2.954-3.934 1.379-.96 3.029-1.44 4.949-1.44 1.945 0 3.601.486 4.968 1.459 1.366.96 2.277 2.265 2.733 3.915h.295c.579-1.625 1.625-2.924 3.139-3.897 1.527-.984 3.33-1.477 5.411-1.477 2.646 0 4.795.843 6.444 2.53 1.662 1.674 2.493 4.05 2.493 7.128V79h-7.848V61.476c0-1.576-.418-2.758-1.256-3.546-.837-.788-1.883-1.181-3.139-1.181-1.428 0-2.542.455-3.342 1.366-.8.899-1.2 2.087-1.2 3.564V79h-7.627V61.31c0-1.391-.4-2.5-1.2-3.324-.788-.825-1.828-1.237-3.121-1.237-.874 0-1.662.221-2.363.664-.69.431-1.238 1.04-1.644 1.829-.406.775-.609 1.686-.609 2.732V79h-7.867Zm47.43 0V50.636h7.866V79h-7.866Zm3.952-32.02c-1.17 0-2.173-.388-3.01-1.163-.825-.788-1.237-1.73-1.237-2.825 0-1.084.412-2.013 1.237-2.789.837-.788 1.84-1.182 3.01-1.182 1.169 0 2.166.394 2.991 1.182.837.776 1.256 1.705 1.256 2.788 0 1.096-.419 2.038-1.256 2.826-.825.775-1.822 1.163-2.991 1.163Zm28.405 19.943V50.636h7.866V79h-7.552v-5.152h-.296c-.64 1.662-1.705 2.998-3.194 4.007-1.478 1.01-3.281 1.514-5.411 1.514-1.896 0-3.564-.43-5.004-1.292-1.44-.862-2.567-2.087-3.379-3.675-.801-1.588-1.207-3.49-1.219-5.706v-18.06h7.866v16.657c.013 1.674.462 2.997 1.348 3.97.887.972 2.075 1.459 3.564 1.459.948 0 1.835-.216 2.659-.647.825-.443 1.49-1.095 1.995-1.957.517-.862.769-1.927.757-3.195ZM265.749 79V50.636h7.497v5.005h.332c.591-1.662 1.576-2.973 2.955-3.934 1.378-.96 3.028-1.44 4.949-1.44 1.945 0 3.6.486 4.967 1.459 1.366.96 2.277 2.265 2.733 3.915h.295c.579-1.625 1.625-2.924 3.139-3.897 1.527-.984 3.33-1.477 5.411-1.477 2.647 0 4.795.843 6.445 2.53 1.662 1.674 2.492 4.05 2.492 7.128V79h-7.848V61.476c0-1.576-.418-2.758-1.255-3.546-.837-.788-1.884-1.181-3.139-1.181-1.428 0-2.543.455-3.343 1.366-.8.899-1.2 2.087-1.2 3.564V79h-7.626V61.31c0-1.391-.401-2.5-1.201-3.324-.788-.825-1.828-1.237-3.12-1.237-.875 0-1.662.221-2.364.664-.689.431-1.237 1.04-1.644 1.829-.406.775-.609 1.686-.609 2.732V79h-7.866Z" fill="#fff"/></svg>