<svg width="394" height="120" fill="none" xmlns="http://www.w3.org/2000/svg"><rect width="394" height="120" rx="23" fill="#425138"/><path d="M104.285 52.058c-.148-1.49-.782-2.647-1.902-3.471-1.12-.825-2.64-1.238-4.561-1.238-1.305 0-2.407.185-3.306.554-.898.357-1.588.856-2.068 1.496a3.6 3.6 0 0 0-.701 2.18c-.025.676.117 1.267.424 1.772.32.505.757.942 1.311 1.31a9.963 9.963 0 0 0 1.92.943c.727.258 1.503.48 2.328.665l3.397.812c1.65.37 3.164.862 4.543 1.477 1.379.616 2.573 1.373 3.582 2.272a9.42 9.42 0 0 1 2.345 3.176c.567 1.218.856 2.616.868 4.191-.012 2.315-.603 4.322-1.772 6.02-1.158 1.687-2.832 2.998-5.023 3.934-2.179.923-4.807 1.385-7.885 1.385-3.053 0-5.712-.468-7.977-1.404-2.253-.936-4.014-2.32-5.282-4.155-1.255-1.846-1.914-4.13-1.975-6.85h7.737c.086 1.267.45 2.326 1.09 3.176.652.837 1.52 1.47 2.603 1.901 1.096.42 2.333.628 3.712.628 1.354 0 2.529-.197 3.527-.59 1.009-.395 1.791-.942 2.345-1.644a3.795 3.795 0 0 0 .831-2.419c0-.85-.253-1.564-.757-2.142-.493-.579-1.219-1.071-2.179-1.477-.948-.407-2.112-.776-3.49-1.108l-4.118-1.034c-3.189-.776-5.706-1.989-7.553-3.638-1.846-1.65-2.764-3.872-2.751-6.666-.013-2.29.597-4.29 1.828-6.002 1.243-1.711 2.948-3.047 5.115-4.007 2.167-.96 4.629-1.44 7.386-1.44 2.807 0 5.257.48 7.35 1.44 2.105.96 3.742 2.296 4.912 4.007 1.169 1.711 1.772 3.693 1.809 5.946h-7.663Zm28.497-1.422v5.91h-17.08v-5.91h17.08Zm-13.203-6.795h7.867v26.443c0 .726.111 1.293.332 1.699.222.394.53.67.924.83.406.161.874.241 1.403.241.369 0 .739-.03 1.108-.092.369-.074.652-.13.849-.166l1.238 5.853c-.394.123-.948.265-1.662.425-.714.172-1.582.277-2.604.314-1.896.074-3.558-.179-4.986-.757-1.416-.579-2.517-1.478-3.305-2.696-.788-1.22-1.176-2.758-1.164-4.617V43.841Zm26.416 35.694c-1.81 0-3.422-.313-4.838-.941-1.416-.64-2.536-1.582-3.361-2.825-.813-1.256-1.219-2.82-1.219-4.69 0-1.577.29-2.9.868-3.971a7.033 7.033 0 0 1 2.364-2.585c.997-.653 2.13-1.145 3.397-1.477a25.924 25.924 0 0 1 4.026-.702c1.65-.173 2.979-.333 3.989-.48 1.009-.16 1.742-.394 2.197-.702.456-.308.683-.763.683-1.367v-.11c0-1.17-.369-2.075-1.108-2.715-.726-.64-1.76-.96-3.102-.96-1.416 0-2.542.314-3.379.942-.837.615-1.391 1.39-1.662 2.326l-7.276-.59c.37-1.724 1.096-3.214 2.179-4.47 1.084-1.267 2.481-2.24 4.192-2.917 1.724-.69 3.718-1.034 5.983-1.034 1.576 0 3.084.185 4.524.554 1.453.37 2.739.942 3.86 1.717a8.345 8.345 0 0 1 2.677 2.992c.653 1.206.979 2.653.979 4.34V79h-7.46v-3.933h-.222a8.001 8.001 0 0 1-1.828 2.345c-.763.665-1.68 1.188-2.752 1.57-1.071.369-2.308.553-3.711.553Zm2.253-5.428c1.157 0 2.179-.228 3.065-.684.886-.468 1.582-1.095 2.087-1.883.504-.788.757-1.68.757-2.678v-3.01c-.246.16-.585.308-1.016.444-.418.123-.892.24-1.422.35-.529.099-1.058.191-1.588.277l-1.44.203c-.923.136-1.73.351-2.419.647-.69.295-1.225.695-1.607 1.2-.381.492-.572 1.108-.572 1.847 0 1.07.388 1.89 1.163 2.456.788.553 1.785.83 2.992.83Zm27.689-11.505V79h-7.866V50.636h7.497v5.005h.332a7.916 7.916 0 0 1 3.158-3.915c1.477-.973 3.269-1.459 5.374-1.459 1.969 0 3.687.43 5.152 1.293 1.465.861 2.603 2.093 3.416 3.693.812 1.588 1.219 3.484 1.219 5.687V79h-7.867V62.344c.012-1.736-.431-3.09-1.329-4.063-.899-.985-2.136-1.477-3.712-1.477-1.059 0-1.994.228-2.807.683-.8.456-1.428 1.12-1.883 1.994-.444.862-.671 1.902-.684 3.121Zm34.933 16.86c-2.154 0-4.105-.554-5.853-1.662-1.736-1.12-3.115-2.764-4.137-4.93-1.009-2.18-1.514-4.851-1.514-8.015 0-3.25.523-5.952 1.57-8.106 1.046-2.167 2.437-3.786 4.173-4.857 1.748-1.083 3.662-1.625 5.743-1.625 1.588 0 2.911.27 3.97.813 1.071.529 1.933 1.194 2.585 1.994.665.788 1.17 1.563 1.514 2.327h.24V41.18h7.848V79h-7.755v-4.543h-.333c-.369.788-.892 1.57-1.569 2.346-.665.763-1.533 1.397-2.604 1.901-1.059.505-2.351.758-3.878.758Zm2.493-6.26c1.268 0 2.339-.345 3.213-1.034.887-.702 1.564-1.68 2.031-2.937.481-1.255.721-2.726.721-4.413 0-1.686-.234-3.151-.702-4.395-.468-1.243-1.145-2.203-2.031-2.88-.887-.678-1.964-1.016-3.232-1.016-1.293 0-2.382.35-3.268 1.053-.887.701-1.558 1.674-2.013 2.917-.456 1.243-.683 2.684-.683 4.321 0 1.65.227 3.109.683 4.377.468 1.255 1.139 2.24 2.013 2.954.886.702 1.975 1.053 3.268 1.053Zm28.202 6.334c-1.809 0-3.422-.314-4.838-.942-1.416-.64-2.536-1.582-3.361-2.825-.812-1.256-1.218-2.82-1.218-4.69 0-1.577.289-2.9.867-3.971a7.033 7.033 0 0 1 2.364-2.585c.997-.653 2.13-1.145 3.398-1.477a25.89 25.89 0 0 1 4.025-.702c1.65-.173 2.98-.333 3.989-.48 1.009-.16 1.742-.394 2.197-.702.456-.308.684-.763.684-1.367v-.11c0-1.17-.37-2.075-1.108-2.715-.727-.64-1.761-.96-3.103-.96-1.415 0-2.542.314-3.379.942-.837.615-1.391 1.39-1.662 2.326l-7.275-.59c.369-1.724 1.095-3.214 2.179-4.47 1.083-1.267 2.48-2.24 4.191-2.917 1.724-.69 3.718-1.034 5.983-1.034 1.576 0 3.084.185 4.525.554 1.452.37 2.739.942 3.859 1.717a8.336 8.336 0 0 1 2.677 2.992c.653 1.206.979 2.653.979 4.34V79h-7.46v-3.933h-.222a8.001 8.001 0 0 1-1.828 2.345c-.763.665-1.68 1.188-2.751 1.57-1.071.369-2.308.553-3.712.553Zm2.253-5.43c1.157 0 2.179-.227 3.065-.683.887-.468 1.582-1.095 2.087-1.883.505-.788.757-1.68.757-2.678v-3.01c-.246.16-.585.308-1.016.444-.418.123-.892.24-1.421.35-.53.099-1.059.191-1.588.277l-1.441.203c-.923.136-1.729.351-2.419.647-.689.295-1.225.695-1.606 1.2-.382.492-.573 1.108-.573 1.847 0 1.07.388 1.89 1.164 2.456.787.553 1.785.83 2.991.83ZM263.641 79V50.636h7.627v4.95h.295c.517-1.761 1.385-3.09 2.604-3.99 1.218-.91 2.622-1.366 4.21-1.366.394 0 .819.025 1.274.074.456.05.856.117 1.2.203v6.98c-.369-.11-.88-.21-1.532-.295-.653-.086-1.25-.13-1.791-.13-1.158 0-2.192.253-3.103.758a5.583 5.583 0 0 0-2.142 2.068c-.517.886-.775 1.908-.775 3.065V79h-7.867Zm30.409.462c-2.154 0-4.106-.554-5.854-1.662-1.736-1.12-3.114-2.764-4.136-4.93-1.01-2.18-1.514-4.851-1.514-8.015 0-3.25.523-5.952 1.569-8.106 1.047-2.167 2.438-3.786 4.174-4.857 1.748-1.083 3.662-1.625 5.742-1.625 1.588 0 2.912.27 3.971.813 1.071.529 1.932 1.194 2.585 1.994.665.788 1.169 1.563 1.514 2.327h.24V41.18h7.848V79h-7.756v-4.543h-.332c-.369.788-.892 1.57-1.57 2.346-.664.763-1.532 1.397-2.603 1.901-1.059.505-2.352.758-3.878.758Zm2.493-6.26c1.268 0 2.339-.345 3.213-1.034.886-.702 1.563-1.68 2.031-2.937.48-1.255.72-2.726.72-4.413 0-1.686-.234-3.151-.701-4.395-.468-1.243-1.145-2.203-2.032-2.88-.886-.678-1.963-1.016-3.231-1.016-1.293 0-2.382.35-3.269 1.053-.886.701-1.557 1.674-2.012 2.917-.456 1.243-.684 2.684-.684 4.321 0 1.65.228 3.109.684 4.377.467 1.255 1.138 2.24 2.012 2.954.887.702 1.976 1.053 3.269 1.053Z" fill="#fff"/></svg>